<mxfile host="app.diagrams.net" agent="Mozilla/5.0 (Windows NT 10.0; Win64; x64; rv:144.0) Gecko/20100101 Firefox/144.0" version="28.2.8">
  <diagram name="Page-1" id="RffvDeGVpNFIwnqqBonR">
    <mxGraphModel grid="1" page="1" gridSize="10" guides="1" tooltips="1" connect="1" arrows="1" fold="1" pageScale="1" pageWidth="850" pageHeight="1100" math="0" shadow="0">
      <root>
        <mxCell id="0" />
        <mxCell id="1" parent="0" />
        <mxCell id="14n-f7DVuK32noArM2Mq-1" value="1. Student Registration and Profile Management" style="ellipse;whiteSpace=wrap;html=1;aspect=fixed;" vertex="1" parent="1">
          <mxGeometry x="1203" y="130" width="145" height="145" as="geometry" />
        </mxCell>
        <mxCell id="yI1nzGfzjH4qdO7dMFxV-10" style="edgeStyle=orthogonalEdgeStyle;rounded=0;orthogonalLoop=1;jettySize=auto;html=1;" edge="1" parent="1" source="14n-f7DVuK32noArM2Mq-2" target="14n-f7DVuK32noArM2Mq-1">
          <mxGeometry relative="1" as="geometry" />
        </mxCell>
        <mxCell id="14n-f7DVuK32noArM2Mq-2" value="2. User Authentication and Role Management" style="ellipse;whiteSpace=wrap;html=1;aspect=fixed;" vertex="1" parent="1">
          <mxGeometry x="1203" y="330" width="145" height="145" as="geometry" />
        </mxCell>
        <mxCell id="14n-f7DVuK32noArM2Mq-3" value="3. Fee and Financial Management" style="ellipse;whiteSpace=wrap;html=1;aspect=fixed;" vertex="1" parent="1">
          <mxGeometry x="1203" y="530" width="145" height="145" as="geometry" />
        </mxCell>
        <mxCell id="14n-f7DVuK32noArM2Mq-4" value="4. Admin Dashboard and Data Management" style="ellipse;whiteSpace=wrap;html=1;aspect=fixed;" vertex="1" parent="1">
          <mxGeometry x="1203" y="730" width="145" height="145" as="geometry" />
        </mxCell>
        <mxCell id="14n-f7DVuK32noArM2Mq-5" value="5. Notifications and Announcements" style="ellipse;whiteSpace=wrap;html=1;aspect=fixed;" vertex="1" parent="1">
          <mxGeometry x="1203" y="940" width="145" height="145" as="geometry" />
        </mxCell>
        <mxCell id="14n-f7DVuK32noArM2Mq-7" value="&lt;div&gt;Student&lt;/div&gt;" style="whiteSpace=wrap;html=1;aspect=fixed;" vertex="1" parent="1">
          <mxGeometry x="970" y="532.5" width="140" height="140" as="geometry" />
        </mxCell>
        <mxCell id="14n-f7DVuK32noArM2Mq-8" value="Administrator" style="whiteSpace=wrap;html=1;aspect=fixed;" vertex="1" parent="1">
          <mxGeometry x="1440" y="535" width="140" height="140" as="geometry" />
        </mxCell>
        <mxCell id="14n-f7DVuK32noArM2Mq-9" value="" style="endArrow=classic;html=1;rounded=0;exitX=0;exitY=0;exitDx=0;exitDy=0;entryX=1.011;entryY=0.136;entryDx=0;entryDy=0;entryPerimeter=0;" edge="1" parent="1" source="14n-f7DVuK32noArM2Mq-3" target="14n-f7DVuK32noArM2Mq-7">
          <mxGeometry width="50" height="50" relative="1" as="geometry">
            <mxPoint x="1083" y="306.5" as="sourcePoint" />
            <mxPoint x="770" y="672.5" as="targetPoint" />
          </mxGeometry>
        </mxCell>
        <mxCell id="14n-f7DVuK32noArM2Mq-10" value="" style="endArrow=classic;html=1;rounded=0;exitX=1;exitY=0.5;exitDx=0;exitDy=0;entryX=0.046;entryY=0.724;entryDx=0;entryDy=0;entryPerimeter=0;" edge="1" parent="1" target="14n-f7DVuK32noArM2Mq-3">
          <mxGeometry width="50" height="50" relative="1" as="geometry">
            <mxPoint x="1110" y="635" as="sourcePoint" />
            <mxPoint x="1202.9999999999995" y="635" as="targetPoint" />
          </mxGeometry>
        </mxCell>
        <mxCell id="14n-f7DVuK32noArM2Mq-11" value="" style="endArrow=classic;html=1;rounded=0;exitX=0.29;exitY=0.966;exitDx=0;exitDy=0;entryX=1;entryY=0.75;entryDx=0;entryDy=0;exitPerimeter=0;" edge="1" parent="1" source="14n-f7DVuK32noArM2Mq-3">
          <mxGeometry width="50" height="50" relative="1" as="geometry">
            <mxPoint x="1211.5549999999998" y="670.09" as="sourcePoint" />
            <mxPoint x="1110" y="670" as="targetPoint" />
          </mxGeometry>
        </mxCell>
        <mxCell id="14n-f7DVuK32noArM2Mq-12" value="Financial summary request" style="text;html=1;whiteSpace=wrap;strokeColor=none;fillColor=none;align=center;verticalAlign=middle;rounded=0;rotation=0;" vertex="1" parent="1">
          <mxGeometry x="1117" y="560" width="93" height="30" as="geometry" />
        </mxCell>
        <mxCell id="14n-f7DVuK32noArM2Mq-13" value="Payment" style="text;html=1;whiteSpace=wrap;strokeColor=none;fillColor=none;align=center;verticalAlign=middle;rounded=0;rotation=0;" vertex="1" parent="1">
          <mxGeometry x="1115" y="602.5" width="100" height="30" as="geometry" />
        </mxCell>
        <mxCell id="14n-f7DVuK32noArM2Mq-14" value="Payment confirmation" style="text;html=1;whiteSpace=wrap;strokeColor=none;fillColor=none;align=center;verticalAlign=middle;rounded=0;rotation=0;" vertex="1" parent="1">
          <mxGeometry x="1130" y="642.5" width="70" height="30" as="geometry" />
        </mxCell>
        <mxCell id="14n-f7DVuK32noArM2Mq-15" value="" style="endArrow=classic;html=1;rounded=0;exitX=0;exitY=0;exitDx=0;exitDy=0;entryX=0.5;entryY=1;entryDx=0;entryDy=0;" edge="1" parent="1" source="14n-f7DVuK32noArM2Mq-5" target="14n-f7DVuK32noArM2Mq-7">
          <mxGeometry width="50" height="50" relative="1" as="geometry">
            <mxPoint x="1215" y="968" as="sourcePoint" />
            <mxPoint x="996" y="680" as="targetPoint" />
          </mxGeometry>
        </mxCell>
        <mxCell id="14n-f7DVuK32noArM2Mq-16" value="Notifications" style="text;html=1;whiteSpace=wrap;strokeColor=none;fillColor=none;align=center;verticalAlign=middle;rounded=0;rotation=0;" vertex="1" parent="1">
          <mxGeometry x="991" y="797" width="110" height="30" as="geometry" />
        </mxCell>
        <mxCell id="14n-f7DVuK32noArM2Mq-17" value="" style="endArrow=classic;html=1;rounded=0;exitX=0.5;exitY=1;exitDx=0;exitDy=0;entryX=1;entryY=0;entryDx=0;entryDy=0;" edge="1" parent="1" source="14n-f7DVuK32noArM2Mq-8" target="14n-f7DVuK32noArM2Mq-5">
          <mxGeometry width="50" height="50" relative="1" as="geometry">
            <mxPoint x="1538" y="700" as="sourcePoint" />
            <mxPoint x="1320" y="988.5" as="targetPoint" />
          </mxGeometry>
        </mxCell>
        <mxCell id="14n-f7DVuK32noArM2Mq-18" value="Announcements" style="text;html=1;whiteSpace=wrap;strokeColor=none;fillColor=none;align=center;verticalAlign=middle;rounded=0;rotation=0;" vertex="1" parent="1">
          <mxGeometry x="1348" y="920" width="130" height="30" as="geometry" />
        </mxCell>
        <mxCell id="14n-f7DVuK32noArM2Mq-26" value="Recovery Request" style="text;html=1;whiteSpace=wrap;strokeColor=none;fillColor=none;align=center;verticalAlign=middle;rounded=0;rotation=0;" vertex="1" parent="1">
          <mxGeometry x="1180" y="470" width="70" height="30" as="geometry" />
        </mxCell>
        <mxCell id="14n-f7DVuK32noArM2Mq-27" value="" style="endArrow=classic;html=1;rounded=0;entryX=0;entryY=0.5;entryDx=0;entryDy=0;exitX=0.5;exitY=0;exitDx=0;exitDy=0;" edge="1" parent="1" source="14n-f7DVuK32noArM2Mq-7" target="14n-f7DVuK32noArM2Mq-2">
          <mxGeometry width="50" height="50" relative="1" as="geometry">
            <mxPoint x="1040" y="530" as="sourcePoint" />
            <mxPoint x="1073" y="469.31" as="targetPoint" />
          </mxGeometry>
        </mxCell>
        <mxCell id="14n-f7DVuK32noArM2Mq-28" value="Login Credentials" style="text;html=1;whiteSpace=wrap;strokeColor=none;fillColor=none;align=center;verticalAlign=middle;rounded=0;rotation=0;" vertex="1" parent="1">
          <mxGeometry x="1400" y="420" width="70" height="30" as="geometry" />
        </mxCell>
        <mxCell id="14n-f7DVuK32noArM2Mq-29" value="" style="endArrow=classic;html=1;rounded=0;entryX=1;entryY=0.5;entryDx=0;entryDy=0;exitX=0.5;exitY=0;exitDx=0;exitDy=0;" edge="1" parent="1" source="14n-f7DVuK32noArM2Mq-8" target="14n-f7DVuK32noArM2Mq-2">
          <mxGeometry width="50" height="50" relative="1" as="geometry">
            <mxPoint x="1330" y="538.5" as="sourcePoint" />
            <mxPoint x="1493" y="411.5" as="targetPoint" />
          </mxGeometry>
        </mxCell>
        <mxCell id="14n-f7DVuK32noArM2Mq-35" value="" style="endArrow=classic;html=1;rounded=0;entryX=0.983;entryY=0.374;entryDx=0;entryDy=0;exitX=1;exitY=0;exitDx=0;exitDy=0;entryPerimeter=0;" edge="1" parent="1" source="14n-f7DVuK32noArM2Mq-8" target="14n-f7DVuK32noArM2Mq-1">
          <mxGeometry width="50" height="50" relative="1" as="geometry">
            <mxPoint x="1445" y="579.5" as="sourcePoint" />
            <mxPoint x="1678" y="250" as="targetPoint" />
          </mxGeometry>
        </mxCell>
        <mxCell id="14n-f7DVuK32noArM2Mq-38" value="Student Registration Request" style="text;html=1;whiteSpace=wrap;strokeColor=none;fillColor=none;align=center;verticalAlign=middle;rounded=0;rotation=0;" vertex="1" parent="1">
          <mxGeometry x="1353" y="187.5" width="107" height="30" as="geometry" />
        </mxCell>
        <mxCell id="14n-f7DVuK32noArM2Mq-40" value="" style="endArrow=classic;html=1;rounded=0;entryX=1;entryY=0;entryDx=0;entryDy=0;exitX=0;exitY=0.5;exitDx=0;exitDy=0;" edge="1" parent="1" source="14n-f7DVuK32noArM2Mq-8" target="14n-f7DVuK32noArM2Mq-4">
          <mxGeometry width="50" height="50" relative="1" as="geometry">
            <mxPoint x="1560" y="910" as="sourcePoint" />
            <mxPoint x="1610" y="860" as="targetPoint" />
          </mxGeometry>
        </mxCell>
        <mxCell id="14n-f7DVuK32noArM2Mq-41" value="" style="endArrow=classic;html=1;rounded=0;entryX=0;entryY=1;entryDx=0;entryDy=0;exitX=1;exitY=0.5;exitDx=0;exitDy=0;" edge="1" parent="1" source="14n-f7DVuK32noArM2Mq-4" target="14n-f7DVuK32noArM2Mq-8">
          <mxGeometry width="50" height="50" relative="1" as="geometry">
            <mxPoint x="1450" y="615" as="sourcePoint" />
            <mxPoint x="1337" y="761" as="targetPoint" />
          </mxGeometry>
        </mxCell>
        <mxCell id="14n-f7DVuK32noArM2Mq-42" value="&lt;div&gt;Database Management&amp;nbsp;&lt;/div&gt;&lt;div&gt;Request&lt;/div&gt;" style="text;html=1;whiteSpace=wrap;strokeColor=none;fillColor=none;align=center;verticalAlign=middle;rounded=0;rotation=-45;" vertex="1" parent="1">
          <mxGeometry x="1270" y="650" width="190" height="30" as="geometry" />
        </mxCell>
        <mxCell id="14n-f7DVuK32noArM2Mq-43" value="&lt;div&gt;Management Data &amp;amp; Reports&lt;/div&gt;&lt;div&gt;&lt;br&gt;&lt;/div&gt;" style="text;html=1;whiteSpace=wrap;strokeColor=none;fillColor=none;align=center;verticalAlign=middle;rounded=0;rotation=-60;" vertex="1" parent="1">
          <mxGeometry x="1330" y="710" width="130" height="30" as="geometry" />
        </mxCell>
        <mxCell id="yI1nzGfzjH4qdO7dMFxV-1" value="" style="endArrow=classic;html=1;rounded=0;entryX=0;entryY=1;entryDx=0;entryDy=0;exitX=0.75;exitY=0;exitDx=0;exitDy=0;" edge="1" parent="1" source="14n-f7DVuK32noArM2Mq-7" target="14n-f7DVuK32noArM2Mq-2">
          <mxGeometry width="50" height="50" relative="1" as="geometry">
            <mxPoint x="1050" y="540" as="sourcePoint" />
            <mxPoint x="1213" y="413" as="targetPoint" />
          </mxGeometry>
        </mxCell>
        <mxCell id="yI1nzGfzjH4qdO7dMFxV-2" value="" style="endArrow=classic;html=1;rounded=0;entryX=1;entryY=1;entryDx=0;entryDy=0;exitX=0.229;exitY=0.004;exitDx=0;exitDy=0;exitPerimeter=0;" edge="1" parent="1" source="14n-f7DVuK32noArM2Mq-8" target="14n-f7DVuK32noArM2Mq-2">
          <mxGeometry width="50" height="50" relative="1" as="geometry">
            <mxPoint x="1230" y="554" as="sourcePoint" />
            <mxPoint x="1379" y="475" as="targetPoint" />
          </mxGeometry>
        </mxCell>
        <mxCell id="yI1nzGfzjH4qdO7dMFxV-3" value="Login Credentials" style="text;html=1;whiteSpace=wrap;strokeColor=none;fillColor=none;align=center;verticalAlign=middle;rounded=0;rotation=0;" vertex="1" parent="1">
          <mxGeometry x="1080" y="420" width="70" height="30" as="geometry" />
        </mxCell>
        <mxCell id="yI1nzGfzjH4qdO7dMFxV-4" value="&lt;div align=&quot;center&quot;&gt;Recovery Request&lt;/div&gt;" style="text;whiteSpace=wrap;html=1;align=center;" vertex="1" parent="1">
          <mxGeometry x="1310" y="465" width="60" height="40" as="geometry" />
        </mxCell>
        <mxCell id="2bUNdcouDvxA8JWDI043-1" value="" style="endArrow=classic;html=1;rounded=0;entryX=0.963;entryY=0.352;entryDx=0;entryDy=0;entryPerimeter=0;" edge="1" parent="1" target="14n-f7DVuK32noArM2Mq-4">
          <mxGeometry width="50" height="50" relative="1" as="geometry">
            <mxPoint x="1340" y="370" as="sourcePoint" />
            <mxPoint x="1390" y="320" as="targetPoint" />
            <Array as="points">
              <mxPoint x="1580" y="400" />
              <mxPoint x="1690" y="660" />
              <mxPoint x="1570" y="780" />
            </Array>
          </mxGeometry>
        </mxCell>
        <mxCell id="2bUNdcouDvxA8JWDI043-3" value="Login status &amp;amp; Role" style="text;html=1;whiteSpace=wrap;strokeColor=none;fillColor=none;align=center;verticalAlign=middle;rounded=0;" vertex="1" parent="1">
          <mxGeometry x="1270" y="290" width="90" height="30" as="geometry" />
        </mxCell>
        <mxCell id="2bUNdcouDvxA8JWDI043-4" value="Login status &amp;amp; Role" style="text;html=1;whiteSpace=wrap;strokeColor=none;fillColor=none;align=center;verticalAlign=middle;rounded=0;" vertex="1" parent="1">
          <mxGeometry x="1490" y="750" width="90" height="30" as="geometry" />
        </mxCell>
        <mxCell id="2bUNdcouDvxA8JWDI043-5" value="" style="endArrow=classic;html=1;rounded=0;entryX=1;entryY=1;entryDx=0;entryDy=0;exitX=0.25;exitY=1;exitDx=0;exitDy=0;" edge="1" parent="1" source="14n-f7DVuK32noArM2Mq-8" target="14n-f7DVuK32noArM2Mq-4">
          <mxGeometry width="50" height="50" relative="1" as="geometry">
            <mxPoint x="1391" y="982" as="sourcePoint" />
            <mxPoint x="1159" y="650" as="targetPoint" />
          </mxGeometry>
        </mxCell>
        <mxCell id="2bUNdcouDvxA8JWDI043-6" value="&lt;div&gt;New Student Registration Request&lt;/div&gt;&lt;div&gt;&lt;br&gt;&lt;/div&gt;" style="text;html=1;whiteSpace=wrap;strokeColor=none;fillColor=none;align=center;verticalAlign=middle;rounded=0;rotation=-50;" vertex="1" parent="1">
          <mxGeometry x="1315" y="810" width="130" height="30" as="geometry" />
        </mxCell>
        <mxCell id="LACKwLjpzTLdzeSaoAuY-1" value="" style="endArrow=classic;html=1;rounded=0;exitX=1;exitY=0.5;exitDx=0;exitDy=0;entryX=0.89;entryY=-0.006;entryDx=0;entryDy=0;entryPerimeter=0;" edge="1" parent="1" source="14n-f7DVuK32noArM2Mq-7" target="14n-f7DVuK32noArM2Mq-13">
          <mxGeometry width="50" height="50" relative="1" as="geometry">
            <mxPoint x="1232" y="617" as="sourcePoint" />
            <mxPoint x="1120" y="618" as="targetPoint" />
          </mxGeometry>
        </mxCell>
        <mxCell id="LACKwLjpzTLdzeSaoAuY-2" value="Financial summary" style="text;html=1;whiteSpace=wrap;strokeColor=none;fillColor=none;align=center;verticalAlign=middle;rounded=0;rotation=0;" vertex="1" parent="1">
          <mxGeometry x="1120" y="520" width="90" height="30" as="geometry" />
        </mxCell>
        <mxCell id="LACKwLjpzTLdzeSaoAuY-3" value="" style="endArrow=classic;html=1;rounded=0;exitX=1;exitY=1;exitDx=0;exitDy=0;" edge="1" parent="1" source="14n-f7DVuK32noArM2Mq-1">
          <mxGeometry width="50" height="50" relative="1" as="geometry">
            <mxPoint x="1700" y="520" as="sourcePoint" />
            <mxPoint x="1550" y="533" as="targetPoint" />
          </mxGeometry>
        </mxCell>
        <mxCell id="LACKwLjpzTLdzeSaoAuY-4" value="&amp;nbsp;Registration Confirmation" style="text;html=1;whiteSpace=wrap;strokeColor=none;fillColor=none;align=center;verticalAlign=middle;rounded=0;rotation=50;" vertex="1" parent="1">
          <mxGeometry x="1384.38" y="310" width="44.25" height="30" as="geometry" />
        </mxCell>
        <mxCell id="LACKwLjpzTLdzeSaoAuY-5" value="" style="endArrow=classic;html=1;rounded=0;entryX=0;entryY=0.5;entryDx=0;entryDy=0;exitX=0.25;exitY=0;exitDx=0;exitDy=0;" edge="1" parent="1" source="14n-f7DVuK32noArM2Mq-7" target="14n-f7DVuK32noArM2Mq-1">
          <mxGeometry width="50" height="50" relative="1" as="geometry">
            <mxPoint x="1117" y="538.5" as="sourcePoint" />
            <mxPoint x="883" y="187.5" as="targetPoint" />
          </mxGeometry>
        </mxCell>
        <mxCell id="LACKwLjpzTLdzeSaoAuY-6" value="Profile Management Request" style="text;html=1;whiteSpace=wrap;strokeColor=none;fillColor=none;align=center;verticalAlign=middle;rounded=0;rotation=0;" vertex="1" parent="1">
          <mxGeometry x="1101" y="340" width="107" height="30" as="geometry" />
        </mxCell>
        <mxCell id="LACKwLjpzTLdzeSaoAuY-7" value="" style="endArrow=classic;html=1;rounded=0;entryX=0;entryY=0;entryDx=0;entryDy=0;exitX=0.048;exitY=0.276;exitDx=0;exitDy=0;exitPerimeter=0;" edge="1" parent="1" source="14n-f7DVuK32noArM2Mq-1" target="14n-f7DVuK32noArM2Mq-7">
          <mxGeometry width="50" height="50" relative="1" as="geometry">
            <mxPoint x="917" y="505" as="sourcePoint" />
            <mxPoint x="1115" y="175" as="targetPoint" />
          </mxGeometry>
        </mxCell>
        <mxCell id="LACKwLjpzTLdzeSaoAuY-8" value="Profile Data &amp;amp; Confirmation" style="text;html=1;whiteSpace=wrap;strokeColor=none;fillColor=none;align=center;verticalAlign=middle;rounded=0;rotation=0;" vertex="1" parent="1">
          <mxGeometry x="1003" y="320" width="107" height="30" as="geometry" />
        </mxCell>
      </root>
    </mxGraphModel>
  </diagram>
</mxfile>
